# xmcd CD database file
#
# Track frame offsets:
#	150
#	14140
#	32286
#	57999
#	77894
#	98290
#
# Disc length: 1463 seconds
#
# Revision: 1
# Processed by: cddbd v1.5.2PL0 Copyright (c) Steve Scherf et al.
# Submitted via: CDex 1.70beta3
#
DISCID=3c05b506
DTITLE=Billie Holiday - The Cool Jazz Collection 73
DYEAR=1900
DGENRE=Jazz
TTITLE0=Strange Fruit
TTITLE1=God Bless the Child
TTITLE2=I Get a Kick out of You
TTITLE3=Come Rain Or Come Shine
TTITLE4=Stars Fell on Alabama
TTITLE5=All of You
EXTD=
EXTT0=
EXTT1=
EXTT2=
EXTT3=
EXTT4=
EXTT5=
PLAYORDER=
